# xmcd
#
# Track frame offsets: 
#        150
#        18145
#        37880
#        51457
#        76107
#        91227
#        106392
#        121652
#        141147
#        155930
#
# Disc length: 2324 seconds
#
# Revision: 2
# Processed by: cddbd v1.5.2PL0 Copyright (c) Steve Scherf et al.
# Submitted via: ExactAudioCopyFreeDBPlugin 1.0
#
DISCID=7409120a
DTITLE=Various Artist - Blues Train Railroad Songs (Rounder EasyDisc)
DYEAR=1998
DGENRE=Trains
TTITLE0=The Holmes Brothers - There's a Train
TTITLE1=Bobby Parker - Fast Train
TTITLE2=Johnny Nocturne - Boogie-Woogie Choo Choo Train
TTITLE3=Larry Johnson - Railraod Man
TTITLE4=Rory Block - Railroadin' Some
TTITLE5=Snooks Eaglin - That Same Old Train
TTITLE6=Chuck Carbo - Meet Me at the Station
TTITLE7=Phillip Walker - Goodie Train
TTITLE8=Preacher Jack - Mystery Train
TTITLE9=Clarence "Gatemouth" Brown - Take The "A" Train
EXTD=
EXTT0=
EXTT1=
EXTT2=
EXTT3=
EXTT4=
EXTT5=
EXTT6=
EXTT7=
EXTT8=
EXTT9=
PLAYORDER=
